<?xml version="1.0" encoding="utf-8"?>
<svg version="1.1" xmlns="http://www.w3.org/2000/svg" xmlns:xlink="http://www.w3.org/1999/xlink"
  viewBox="0 0 228 228" xml:space="preserve">
<g>
	<g>
		<g>
			<g>
				<path fill="#279EA4" d="M158.6,51.8c-1.7,0-3.4,0.4-4.8-0.1c-2.6-1-4.7-0.1-7.1,0.5c-1.8,0.4-3.8,0.2-5.7-0.1
					c-1.5-0.2-2.9-0.8-4.3-1.4c-2.2-0.9-5.2-0.2-6.5-3.1c-0.1-0.3-0.8-0.6-1.2-0.5c-2,0.5-3.9,1-5.7,1.8c-0.6,0.2-0.7,1.5-0.9,2.4
					c-0.2,0.7-0.1,1.8-0.6,2.1c-0.6,0.4-1.6,0.2-2.3,0c-2.1-0.6-4.1-1.2-6.1-1.9c-0.7-0.2-1.6-0.7-1.8-1.3c-0.9-2.7-3-2.7-5.2-2.7
					c-0.7,0-1.3-0.3-2-0.6c-1.1-0.4-2.2-0.8-3.2-1.2c-0.6-0.3-1.4-0.7-1.6-1.2c-0.2-0.4,0.1-1.5,0.5-1.7c2.4-1.5,1.7-3.1,0.4-4.5
					c0.4-0.9,0.7-1.6,1.2-2.7c-4,0.2-7.4,0.4-10.9,0.6c-1.3,0.1-2.7,0-4.1,0c-2.9,0.1-5.7,0.1-8.5,0.6c-2.9,0.5-5.6,1.8-8.5,2.1
					c-1.7,0.2-3.5-0.7-5.2-1.3c-0.7-0.2-1.2-0.8-1.9-1.3c-0.7,0.7-1.6,1.1-2,1.9c-1.4,2.7-4,4-6.6,4.9c-2.8,1-4.1,3-4.4,5.5
					c-0.2,1.9-1.2,2.9-2.6,3.8c-1.1,0.7-2.2,1.6-3.5,1.9c-4.2,1-5.9,5-9,7.3c-1.9,1.4-3.1,3.6-4.6,5.5c-1.1,1.3-2.1,2.7-3,4.1
					c-0.3,0.5-0.7,1.3-0.5,1.8c1.9,6.2-0.4,11.5-3.6,16.6c-0.3,0.4-0.6,1.3-0.4,1.6c1.7,2.1,1.4,4.3,0.1,6.6c3.6,2,6.4,4.9,7.1,8.6
					c0.6,2.9,2,5.1,3.8,6.8l17.3-6.5l48.2-30.4c-0.8-1.9-0.7-4.1-0.3-6.2c0.5-2.7,2.2-4.7,4.9-5.6c1.5-0.5,3.3-0.3,4.9-0.2
					c0.9,0.1,1.7,0.3,2.5,0.5l4.8-0.9l9,10.1c0.8,0.2,1.6,0.4,2.3,0.7l2.3-0.3c0.8-0.5,1.8-0.7,2.9-0.8l17.5-12.8
					c-2.1,1.9-4.2,3.9-4.7,3.8c0.3,0.3,0.9,0.3,1.5,0.3c2.3-1.5,4.6-3,7-4.2c2-1,4.1-1.7,6.1-2.4C160.1,55.9,159.6,53.8,158.6,51.8z
					"/>
				<path fill="#279EA4" d="M205.3,103.1c-5.6,1.3-10.8,2.5-15.8,3.7c-1.6-1.1-3.2-2.2-4.7-3.3c1.3-0.9,0.8-2.1-0.3-3.1
					c-1.7-1.5-3.3-3.3-5.3-4.3c-3.7-1.7-5.5-4.7-7.1-8.1c-0.4-0.9-1.2-1.9-2-2.4c-1.6-1-2.4-2.1-2.6-4c-0.2-1.8-0.5-4.1-1.7-5.3
					c-1.4-1.4-2.2-3.1-2.3-5.2c-0.3,0.1-0.7,0.2-1,0.3l-2.8,4.6c-6.7,5.2-12,6.6-12,6.6l4.3,7.6c0.3,0.5,0.6,1,0.9,1.5l5,8.8
					l-1.1,11.5l-1.6,6.3l0.5,8.4l-2.3,14.3l-1.9,14l5.9,13.3c5.4,27.1-24.8,16.2-24.8,16.2c-6.1-2.1-8.7-13.6-8.7-13.6l1.2-5.7
					l-4.4-3.5c0,0-4.9,1.4-6.1,1.4c-1.2,0-2.3,5.1-2.3,5.1l-6.6,9l-3.8,8.4c0.9,1.4,1.7,2.9,2.5,4.3c1.4,2.4,2,4.9,2.2,7.8
					c0.2,3,1,6.2,2.3,8.9c1.8,3.9,4.4,7.5,6.5,11.2c0.3,0.6,0.5,1.6,0.2,2.1c-1.1,1.9,0,3.3,1.1,4.5c1.2,1.3,2.6,1.4,4.4,1
					c3-0.7,6.2-1.2,9.2-0.9c3.4,0.4,6.2-0.2,8.8-2.2c2.2-1.7,4.1-3.8,6.1-5.8c1.8-1.8,3.5-3.7,5.4-5.5c1.7-1.6,2.7-3.6,2.4-5.9
					c-0.3-2.7,0.2-3.4,2.9-4c2.8-0.6,4.4-2.1,4.6-4.9c0.2-1.9,0.1-4.1-0.7-5.9c-0.8-2-0.1-3,1.4-3.8c3.6-2,6.3-5.5,10.6-6.4
					c0.2-0.1,0.4-0.2,0.6-0.3c2.6-1.7,4.1-3.8,4-7.1c-0.1-2.7,0.3-5.4,0.4-8.1c0-0.5-0.3-1.2-0.7-1.5c-2-2-3.2-4.2-2.1-7.2
					c0.3-0.7,0.1-2.1-0.3-2.5c-1.5-1.3-0.9-2.7-0.3-4c3.6-7.7,9.7-13.3,16.2-18.4c0.3-0.2,0.7-0.4,1-0.5c2.4-0.5,4-2.2,5.4-4
					c5.1-6.2,9.3-12.7,9.8-21C205.7,104.7,205.3,103.7,205.3,103.1z"/>
				<path fill="#279EA4" d="M201.8,175.3c-0.9,1.1,0.6,3.4-2.1,3.3c-0.1,0-0.2,0.4-0.3,0.6c-3,7.2-5.9,14.3-8.8,21.5
					c-0.6,1.5-1.3,2.7-3.2,2.8c-1.6,0.1-2.8,2.1-4.7,0.2c-1.5-1.5-1.4-3.1-1.2-4.9c0.1-0.9-0.4-2-0.2-2.8c0.3-1.6,0.7-3.3,1.6-4.5
					c1.6-2.3,2.1-4.7,1.6-7.4c-0.6-3.3,0.1-4.3,3.2-5.1c4.6-1.2,7.9-4.2,10.4-8.1c0.3-0.5,0.9-0.8,1.3-1.2c0.4,0.4,0.9,0.8,1.1,1.3
					C200.9,172.3,201.3,173.8,201.8,175.3z"/>
			</g>
		</g>
		<g>
			<path fill="#279EA4" d="M153.1,161.7c-2.5-4.5-5.3-9-6.8-13.9c-0.1-0.4-0.2-0.9-0.3-1.3c-2.2,4-4.8,7.8-8,11.3
				c-1.7,1.8-3.8,3-6,3.6c-0.1,3.7-2,5.3-6.5,6.8c-0.1,8.1,3.7,14.6,9.9,15.6c4.6,0.7,9.4,0.3,14.1,0.2c0.9,0,2-0.9,2.7-1.7
				C155.4,178.1,155.7,166.3,153.1,161.7z M133.1,169.6c2-2.7,2.5-2.3,8.1,7.6C138.5,174.7,135.9,172.2,133.1,169.6z"/>
			<path fill="#279EA4" d="M153.3,116.2c0,0.6,0,1.2,0,1.7c0.5-1.1,0.8-2.2,0.5-3c-0.2-0.5-0.3-0.9-0.5-1.4
				C153.2,114.4,153.3,115.3,153.3,116.2z"/>
			<path fill="#279EA4" d="M87.6,85.1c1.3-0.7,2.5-1.5,3.6-2.3c-3.3-5.3-5.2-5.1-10.5,0.3c1.1,1.3,2.3,2.7,3.4,3.9
				C85.3,86.4,86.4,85.8,87.6,85.1z"/>
			<path fill="#279EA4" d="M33.8,114.4c4.4-0.4,8.4-2.2,12.3-4.1c1.4-0.7,2.7-1.3,4.1-2c-0.4-0.3-0.8-0.7-1.2-1
				c-0.6-0.5-2.1-0.6-3-0.3c-4.4,1.8-8.7,3.9-14,6.3c0.6,0.4,1.1,0.8,1.7,1.2C33.7,114.4,33.8,114.4,33.8,114.4z"/>
			<path fill="#279EA4" d="M122.8,71.7c-1.3-1.7-2.7-3.5-4-5.2c-1-0.9-2-1.8-3.1-2.6c-7.2-5.2-15.8-2.4-17.9,6.2
				c-0.6,2.6-0.4,4.9,0.3,7.1c0.2-0.3,0.5-0.6,0.8-0.8c-0.9-1.9-0.8-4.1-0.3-6.3c0.5-2.7,2.2-4.7,4.9-5.6c1.5-0.5,3.3-0.3,4.9-0.2
				c2.8,0.3,5,1,7.2,2.9c2.3,1.9,2.1,5.4,0.6,7.7c1.7-0.8,3.6-1.2,5.5-1.2c0.5,0,0.9,0,1.3,0.1C123,73.1,123,72.5,122.8,71.7z"/>
			<path fill="#279EA4" d="M159.4,72.6c-2.6,4.3-6.5,7.5-11.6,9.5c6.3-0.6,12.3-5.3,15.5-11.1C162,71.5,160.7,72,159.4,72.6z"/>
			<path fill="#279EA4" d="M153.5,60.7c3.2-1.6,6.4-2.6,9.6-3.4c-1.2-0.5-2.9-0.5-5.1,0c-7.9,1.7-13.3,7.2-19,12.2
				C144,67,148.4,63.1,153.5,60.7z"/>
			<path fill="#279EA4" d="M132.3,73.6c0.2-1,0.2-2.1,0.5-3.2c0.3-1.6,1.3-3.1,1.6-4.7c0.2-1.2,0.2-3.2-0.6-3.7
				c-1.1-0.8-3-1.1-4.4-0.8c-1.3,0.3-2.4,1.7-3.2,2.3c-0.3-4.3-4.6-6.4-8.8-3.5c-0.6,0.4-0.9,2.1-0.6,3c0.4,1.3,1.4,2.3,2.1,3.5
				c1.3,1.7,2.6,3.5,4,5.2c0.2,0.8,0.5,1.5,0.8,2.1c1.6,0.2,3,0.7,4.4,1.5C129.1,74.3,130.5,73.7,132.3,73.6z"/>
			<path fill="#279EA4" d="M66.3,99c-3.9-3.2-7-2.3-10.5,2.7c0.8,0.7,1.7,1.4,2.5,2.2C61.1,102.3,63.7,100.7,66.3,99z"/>
			<path fill="#279EA4" d="M111.7,158.6c-0.2,1.6-0.5,3.2-0.9,4.7c0.2,0.2,0.5,0.4,0.7,0.5c3.3,2.3,4.7,1.6,5.9-1.7
				C115.2,161,113.4,159.8,111.7,158.6z"/>
			<path fill="#279EA4" d="M78.9,90.4c-3.3-3.8-4.5-3.5-9.4,0.9c1,1.1,2.1,2.2,3.1,3.3C74.8,93.2,76.8,91.8,78.9,90.4z"/>
			<path fill="#279EA4" d="M107.4,172.6c2.3,1.1,3-1,3.7-3.1c-0.7-0.3-1.3-0.6-2-0.9C108.6,169.9,108,171.2,107.4,172.6z"/>
			<path fill="#279EA4" d="M152.4,134c-0.7,0.5-1.3,1-1.9,1.5c-0.2,0.5-0.3,1.1-0.5,1.6c1.3-0.3,2.6-0.6,4.1-1
				C153.5,135.3,153,134.7,152.4,134z"/>
			<path fill="#279EA4" d="M148.6,140.8c-0.1,0.3-0.3,0.6-0.4,0.9l0,0.1c1.3-0.3,2.5-0.6,3.9-0.9c-0.5-0.7-0.9-1.2-1.4-1.8
				C150,139.8,149.3,140.3,148.6,140.8z"/>
			<path fill="#279EA4" d="M150.6,143.3c0.3,0.4,0.6,0.7,0.9,1.1c-0.9,0.2-1.7,0.4-2.5,0.6c0-0.1-0.1-0.3-0.1-0.4
				C149.3,144.3,149.9,143.8,150.6,143.3z"/>
			<path fill="#279EA4" d="M103.9,179.2c1.5,0.1,2.7-0.7,2.8-3.4c-0.3-0.1-0.5-0.2-0.8-0.2C105.3,176.8,104.6,178,103.9,179.2z"/>
			<path fill="#279EA4" d="M99.4,186.2c0.5,0.8,1.1,1.6,1.7,2.6c1.2-2.7,2-4.5,2.9-6.6c-0.7,0.1-1.3,0.1-1.9,0.2
				C101.2,183.6,100.3,184.9,99.4,186.2z"/>
		</g>
	</g>
	<g>
		<path d="M127.6,87.5c-3.2,5.9-6.5,11.7-9.6,17.6c-3,5.6-3,6.2,1,11.1c5,6.2,10,12.3,15,18.5c0.4-0.3,0.8-0.6,1.2-0.9
			c-3-4.3-5.7-8.9-9.1-12.9c-6-6.9-6.6-9.9-2.8-18.3c1.7-3.7,3.4-7.4,5.1-11c0.4-0.8,1-1.5,1.5-2.2c0.3,0.1,0.6,0.3,1,0.4
			c-0.5,1.5-0.9,3.1-1.4,4.6c-1.3,3.3-2.9,6.5-3.9,9.9c-1.9,6.2-0.5,11.9,3.6,16.9c2.3,2.7,4.7,5.4,7.6,8.7c-2.9-9.6-9.5-18-4.4-28
			c-1.1,7.7,1.4,14.5,5.6,21.6c4.3-10.1-0.9-18.2-3.4-26.6c9.1,7,7.5,17.1,7.4,27.7c4.3-7.9,4.3-16.8,0.3-23.2
			c-2.5-4.1-5.4-7.9-8.1-11.9c-0.7-1-1.3-2-1.5-3.2c6.5,5.9,13.1,11.9,15.6,20.6c0.8,2.8-0.3,6.4-1.1,9.6c-0.8,3.3-2.1,6.4-3.3,9.6
			c0.4,0.2,0.8,0.4,1.1,0.6c1.2-2.3,2.5-4.6,3.7-7c5.8-11.5,6.1-8-0.7-19c-2.4-3.9-4.9-7.8-7.4-11.7c0.3-0.2,0.6-0.4,0.8-0.7
			c2.7,3.2,5.6,6.3,8.1,9.6c1.6,2.1,2.8,4.6,4.2,6.9c3.4,5.3,3.5,9.8-1.5,14.6c-2.8,2.7-4.2,6.9-6.2,10.4c0.5,0.3,0.9,0.5,1.4,0.8
			c1.2-2.6,2.4-5.2,3.7-7.8c3.2,2.3,3.3,3.6,1,6c-6.7,7-6.6,17.4-0.1,25c6,6.9,7,15,5.2,23.8c-1.5,7.1-2.7,8.4-9.9,8
			c-2.7-0.1-5.4,0-8.1,0.3c-11,1.3-16.3-8.7-16-16.3c0-0.8,1.3-1.8,2.3-2.2c4.8-1.9,6.6-4.3,5.5-9.4c-1.2-5.2-2.9-10.4-5.1-15.3
			c-2.5-5.3-6.5-6.4-12-4.4c-1.1,0.4-2.2,1.3-3.4,1.4c-1.3,0.2-2.7-0.3-4.1-0.4c0.4-1.5,0.3-3.5,1.2-4.5c3.3-3.3,9.2-3.4,13.6-0.3
			c2.3,1.6,4.3,3.6,6.6,5.5c-1.2-5.4-6.4-10-12.5-10.9c-1.9-0.3-3.9-0.4-5.8-0.7c-3.9-0.7-4.8-2.2-3.8-6.7
			c9.6,2.6,18.8,5.7,23.7,15.6c-0.7-8.3-9.4-17.3-17.3-18.4c-5-0.7-5.9-4.8-7.4-8.6c6.1-1.1,5.7-1.4,9.1-7.2
			c3.1-5.2,7.2-9.8,10.9-14.7c0.5-0.7,1.5-1.1,2.3-1.6C127.2,87.1,127.4,87.3,127.6,87.5z"/>
		<path d="M108.3,26.6c-1.1-3.1-1.8-5.3-2.7-7.8c2-0.7,3.7-1.3,6.5-2.3c-6.3-3.8-11.8-7.2-17.4-10.5c4-4,6.1-4.7,10.4-2.2
			c11.9,6.7,24,6.8,36.6,2.2c1.7-0.6,3.5-1,5.3-1.4c0.3-0.1,0.7,0.1,2.2,0.4c-6.2,3.3-11.5,6.2-16.9,9.1c2.9,4.3,3.1,4.3,13.8,0.2
			c0,2.3,0,4.4,0,6.6c1.7,0.1,3,0.2,4.8,0.3c-2.6,3.3,0.3,4.1,2,5.4c21.7,15.6,34.2,36.4,36.3,63.2c0.1,1,0.1,2,0.1,2.9
			c0,0.3-0.2,0.6-0.6,1.5c-1.4-5.9-2.5-11.4-4.1-16.7C177.8,54,163,37.1,141.3,26.2C130.8,21,119.7,18.5,108.3,26.6z"/>
		<path d="M115.2,60.9c2.6-4.5,6.4-5.3,10.5-2.4c1,0.7,2.6,1,3.9,0.9c4.5-0.4,6.5,1.7,5.6,6.1c-0.4,1.7-0.9,3.3-1.5,4.9
			c-1.9,5.3-4.9,6.3-9.7,3.4c-4.8,5.5-9.7,10.9-14.5,16.3c-0.3-0.2-0.7-0.4-1-0.6c0.9-1.9,1.6-3.8,2.6-5.6c1.4-2.6,3.2-5,4.2-7.7
			c1.5-3.9-0.1-8.3-3.6-9.3c-2.4-0.7-5.9-1.2-7.6,0c-1.8,1.4-2.8,4.8-2.9,7.3c0,3.2,1.3,6.4,2,9.8c-5.9-5.3-8.3-11.8-5.6-17.5
			C100.8,60,105.6,58.4,115.2,60.9z"/>
		<path d="M95.1,88.4c1.9-1.1,3.3-1.9,5.3-3c0.5,2.3,1.4,4.2,1.3,6.1c-0.3,6-0.7,12-1.4,17.9c-0.7,6.1-1.9,12.2-3.5,18.6
			c-0.5-2.3-1.4-4.7-1.3-7c0.4-7.3,1.2-14.7,1.6-22c0.2-3-0.4-6-0.7-9.4c-3.4,1.3-4.9,3.2-4.8,6.2c0.3,6.6,0.6,13.2,0.8,19.8
			c0.1,1.4,0,2.8,0,4.3c-0.3,0.1-0.7,0.2-1,0.4c-0.6-1-1.5-1.9-1.6-3c-1.4-7.7-3.9-15.3-0.9-23.1c0.2-0.6,0-1.8-0.4-2.3
			c-1.8-2.2-3.8-4.1-5.6-6.3c-1-1.2-2.6-3.6-2.4-3.8c1.7-1.8,3.7-3.5,6-4.4c0.9-0.3,3.1,1.5,4,2.8C92.3,82.6,93.5,85.4,95.1,88.4z"
			/>
		<path d="M31.8,111.3c4.8-2.1,9.5-4.3,14.3-6.2c0.8-0.3,2.4,0.7,3.3,1.5c4.4,3.9,8.7,7.8,13,11.8c2.4-1.8,4.5-3.4,7-5.3
			c1.1,1.4,2,2.6,3.2,4.2c-2,0.5-3.3,0.9-4.7,1.2c-5.5,1.1-11,2.3-16.5,3.3c-3.9,0.7-7.6-0.1-10.8-2.5c-2.9-2.2-5.8-4.4-8.7-6.6
			C31.9,112.3,31.9,111.8,31.8,111.3z"/>
		<path d="M149.1,81c1.2-0.8,2.4-1.5,3.6-2.3c5.1-3.5,8.5-8.1,9.6-14.2c0.7-3.8-0.4-4.8-4.1-4.2c-4.8,0.7-7.9,3.8-9.9,8
			c-1,2.1-1.5,4.4-2.4,6.6c-0.7,1.9-1.3,4-4.3,4c0.4-2.8,0.8-5.4,1.2-8.3c-4.7,0.6-3.8,4.5-4.7,7.2c-3.2-1.5-4.5-4-2.6-6
			c6.3-6.7,12.3-13.8,21.9-16.1c5.3-1.3,8.9,1.4,8.8,6.7c-0.2,8.5-6.5,16.9-14.3,19.1c-0.8,0.2-1.6,0.2-2.4,0.3
			C149.3,81.4,149.2,81.2,149.1,81z"/>
		<path d="M75.3,107.8c-0.1,0.2-0.2,0.5-0.3,0.6c-4.8,5.2-4.8,5.1-10.1,0.7c-2.8-2.4-5.7-4.6-8.5-6.9c-0.5-0.5-1.1-1.4-1-2
			c0.5-3.2,6.7-5.8,9.2-3.8c4,3.4,7.8,7,11.7,10.5C75.9,107.2,75.6,107.5,75.3,107.8z"/>
		<path d="M91.5,133.6c1.2,1.8,2.5,3.5,3.6,5.4c5.4,8.7,11.6,16.6,20.8,21.8c0.8,0.4,0.8,2.3,1.2,3.4c-1.3,0.3-3,1.4-3.7,0.9
			c-10-7-18.3-15.4-21.7-27.7c-0.3-1.1-0.5-2.3-0.8-3.5C91,133.8,91.3,133.7,91.5,133.6z"/>
		<path d="M80.8,102.2c-3.8-3.5-7.5-6.7-10.9-10.2c-0.5-0.5-0.5-2.4,0-3.1c2.5-3.6,6.3-3.4,8.8,0.2c1.1,1.5,2.3,2.8,3.5,4.2
			c1.1,1.3,2.2,2.6,3.9,4.5C84.3,99.4,82.6,100.7,80.8,102.2z"/>
		<path d="M107.6,104.5c0.6-8.6,11.7-20.2,18.5-21.6C120.4,89.6,114,97.1,107.6,104.5z"/>
		<path d="M81.3,103.4c1.3,5.3,2.5,10.2,3.8,15.5c-4.6,0.9-5.4-2.6-6.5-5.3C76,107.1,76.2,106.3,81.3,103.4z"/>
		<path d="M125,145.2c-10.9,2.6-13.1,4.9-15.3,0.1C115.5,140.2,122.3,140,125,145.2z"/>
		<path d="M103,165.4c2.4,1,4.9,2,7.2,3.2c0.6,0.3,1.3,1.4,1.2,1.9c-0.2,0.8-1.2,2.3-1.5,2.2c-2.4-0.7-4.8-1.4-6.8-2.7
			c-0.9-0.6-0.8-2.6-1.2-3.9C102.2,165.8,102.6,165.6,103,165.4z"/>
		<path d="M127.9,157.1c-4.3-1-8-1.9-12-2.8C121,150.2,125.7,151.1,127.9,157.1z"/>
		<path d="M108.6,175.9c-1.6,1.5-2.6,3.3-3.6,3.3c-2.7-0.1-5.3-1.1-5.9-4.8C102.2,172.8,104.7,175,108.6,175.9z"/>
		<path d="M104.9,182.5c-1.2,1.8-2.4,3.7-3.9,6c-1.4-2.2-2.4-3.8-3.8-6c2.7-0.4,4.8-0.6,7-0.9C104.4,181.9,104.7,182.2,104.9,182.5z
			"/>
		<path d="M118.7,82.2c3.5-2.6,7.3-4.5,11.7-4.9C126.8,79.9,123.1,82,118.7,82.2z"/>
		<path d="M144.3,84c2.5,2.7,4.9,5.4,7.4,8.2c-0.3,0.3-0.6,0.6-1,0.9c-2.4-2.7-4.9-5.4-7.3-8.1C143.7,84.6,144,84.3,144.3,84z"/>
	</g>
</g>
<
</svg>